<?xml version="1.0" standalone="no"?>
<!DOCTYPE svg PUBLIC "-//W3C//DTD SVG 20010904//EN"
 "http://www.w3.org/TR/2001/REC-SVG-20010904/DTD/svg10.dtd">
<svg version="1.0" xmlns="http://www.w3.org/2000/svg"
 width="800.000000pt" height="533.000000pt" viewBox="0 0 800.000000 533.000000"
 preserveAspectRatio="xMidYMid meet">

<g transform="translate(0.000000,533.000000) scale(0.100000,-0.100000)"
fill="#000000" stroke="none">
<path d="M1425 4079 c6 -29 -9 -39 -60 -39 -29 0 -36 3 -25 10 12 8 12 10 -5
10 -17 0 -18 2 -5 11 26 19 -93 1 -182 -27 -424 -134 -751 -501 -833 -937 -46
-247 -14 -519 85 -720 22 -45 38 -74 35 -64 -3 11 -1 15 6 12 5 -4 18 -1 27 6
9 7 14 10 10 5 -3 -4 2 -16 13 -27 24 -24 24 -40 -1 -46 -11 -3 -20 -11 -20
-18 0 -25 83 -138 162 -222 220 -230 499 -361 809 -380 115 -7 153 0 144 26
-4 15 1 20 26 25 46 9 47 8 41 -19 -5 -31 3 -31 118 -9 142 26 316 100 442
185 l57 39 2649 1 c2535 0 2651 1 2683 18 39 21 60 69 55 128 -2 21 -4 75 -5
120 -1 69 -3 81 -16 77 -9 -4 -15 0 -15 10 0 19 -16 21 -23 4 -3 -7 -5 59 -5
147 0 88 2 153 5 145 3 -8 16 -24 28 -36 l23 -21 6 51 c3 28 6 284 6 569 0
432 -2 523 -15 553 -27 65 -21 64 -627 63 -543 -1 -695 -7 -650 -22 12 -5 22
-12 22 -17 0 -5 10 -11 23 -13 12 -2 -59 -4 -158 -5 -99 0 -169 3 -155 7 l25
7 -24 8 c-16 6 -20 11 -12 16 27 16 -387 20 -1997 19 l-1683 0 -67 58 c-235
205 -469 299 -774 310 l-147 6 4 -24z m390 -93 c421 -114 732 -442 832 -879
26 -112 23 -365 -5 -482 -35 -146 -92 -276 -174 -398 -55 -82 -227 -253 -308
-306 -338 -220 -765 -253 -1118 -86 -123 58 -220 124 -311 210 -357 337 -459
869 -251 1312 105 225 286 417 500 531 184 99 336 133 570 128 141 -3 179 -7
265 -30z m5698 -358 c48 -25 46 1 47 -812 l0 -770 -27 -28 -27 -28 -2563 0
-2563 0 55 55 c31 30 52 55 48 55 -5 0 -3 4 2 8 6 4 26 31 44 60 18 28 35 52
38 52 2 0 1 -6 -3 -12 -4 -7 -5 -11 -1 -8 3 3 6 8 6 12 2 17 80 160 93 171 18
15 40 67 29 67 -5 0 -12 -12 -15 -26 -4 -15 -9 -24 -13 -21 -3 3 2 20 11 38 9
18 16 39 16 48 0 14 2 14 11 1 9 -13 10 -12 5 3 -3 10 1 43 9 75 27 100 36
184 37 317 1 87 4 115 8 85 l7 -45 1 42 c2 29 -3 45 -14 51 -12 7 -16 26 -17
82 -1 40 -3 67 -5 60 -3 -7 -16 25 -29 71 -13 46 -28 88 -33 93 -5 5 -6 15 -3
22 3 8 1 14 -5 14 -5 0 -17 20 -26 44 -17 44 -46 80 -46 57 0 -6 -7 -11 -15
-11 -8 0 -15 -6 -15 -12 -1 -7 -12 0 -25 16 -13 17 -22 33 -19 38 3 4 1 8 -4
8 -6 0 -12 6 -15 14 -4 9 0 12 12 9 27 -7 35 36 13 67 -10 14 -22 31 -26 38
-10 17 4984 18 5017 0z"/>
<path d="M2540 3543 c0 -14 19 -38 25 -32 8 8 -5 39 -16 39 -5 0 -9 -3 -9 -7z"/>
<path d="M2752 3070 c0 -14 2 -19 5 -12 2 6 2 18 0 25 -3 6 -5 1 -5 -13z"/>
<path d="M2763 2755 c0 -33 2 -45 4 -27 2 18 2 45 0 60 -2 15 -4 0 -4 -33z"/>
<path d="M2737 2621 c-4 -17 -3 -21 5 -13 5 5 8 16 6 23 -3 8 -7 3 -11 -10z"/>
<path d="M1358 4083 c7 -3 16 -2 19 1 4 3 -2 6 -13 5 -11 0 -14 -3 -6 -6z"/>
</g>
</svg>
